<?xml version="1.0" encoding="UTF-8"?>
<svg width="90px" height="21px" viewBox="0 0 90 21" version="1.1" xmlns="http://www.w3.org/2000/svg" xmlns:xlink="http://www.w3.org/1999/xlink">
    <!-- Generator: Sketch 46.2 (44496) - http://www.bohemiancoding.com/sketch -->
    <title>logo-sm</title>
    <desc>Created with Sketch.</desc>
    <defs></defs>
    <g id="Page-1" stroke="none" stroke-width="1" fill="none" fill-rule="evenodd">
        <g id="logo-sm" fill-rule="nonzero" fill="#000000">
            <g id="d">
                <path d="M10.93639,7.19464455 C9.77138194,6.14912431 8.22521352,5.57840195 6.62639,5.60373545 C2.73305667,5.60373545 0.0397233333,9.00828091 0.0397233333,13.1796445 C0.0397233333,17.3510082 2.73305667,20.74919 6.62639,20.74919 C8.80972333,20.74919 9.97972333,20.0332809 10.87639,19.0055536 L10.93639,19.0055536 L10.93639,20.4055536 L14.6030567,20.4055536 L14.6030567,0.0673718182 L10.93639,0.0673718182 L10.93639,7.19464455 Z M7.46305667,17.5514627 C4.70972333,17.5514627 3.89972333,15.2637355 3.86972333,13.1796445 C3.89972333,11.0923718 4.70639,8.80782636 7.46305667,8.80782636 C10.2197233,8.80782636 11.0230567,11.0923718 11.0530567,13.1796445 C11.0230567,15.2637355 10.21639,17.5514595 7.46305667,17.5514595 L7.46305667,17.5514627 Z" id="Shape"></path>
                <path d="M27.79,15.6131841 C27.43,16.1000023 26.2933333,17.6718205 23.42,17.6718205 C21.3175868,17.7113049 19.5709053,16.1332611 19.4966667,14.1272751 L30.69,14.1272751 C30.69,8.95682051 28.4766667,5.72727505 23.4166667,5.72727505 C18.51,5.72409324 15.6666667,8.98545687 15.6666667,13.3000023 C15.6666667,17.6145478 18.51,20.8695478 23.42,20.8695478 C27.55,20.8695478 29.7333333,18.9827296 30.8733333,17.3250023 L27.79,15.6131841 Z M23.42,8.5877296 C25.8733333,8.5877296 26.8633333,10.6718205 26.8633333,11.451366 L19.4966667,11.451366 C19.9228214,9.72657998 21.5645528,8.52828217 23.42,8.5877296 L23.42,8.5877296 Z" id="Shape"></path>
            </g>
            <g id="d" transform="translate(31.000000, 6.000000)">
                <polygon id="Shape" points="0.909196629 3.385625 8.05217416 3.385625 0.0772303371 11.9728125 0.0772303371 14.6103125 12.8450955 14.6103125 12.8450955 11.6353125 4.95633146 11.6353125 12.8450955 3.0478125 12.8450955 0.4103125 0.909196629 0.4103125"></polygon>
                <path d="M20.9991441,11.8042187 C18.9103721,11.8429988 17.1749871,10.2945327 17.1011666,8.32609375 L28.231616,8.32609375 C28.231616,3.24796875 26.0307171,0.07609375 20.9991441,0.07609375 C16.1167284,0.07609375 13.2893688,3.27609375 13.2893688,7.51046875 C13.2893688,11.7448437 16.1167284,14.9448437 20.9991441,14.9448437 C25.1059419,14.9448437 27.2770093,13.0917187 28.4106048,11.4635937 L25.3445935,9.77921875 C24.9866127,10.2604687 23.8563318,11.8042187 20.9991441,11.8042187 Z M20.9991441,2.87921875 C23.4386947,2.87921875 24.4231329,4.92921875 24.4231329,5.69171875 L17.1011666,5.69171875 C17.5246855,3.99891765 19.1553471,2.82234961 20.9991441,2.87921875 Z" id="Shape"></path>
                <path d="M37.2009385,11.8042187 C35.1128607,11.841308 33.378534,10.2937862 33.302961,8.32609375 L44.4334104,8.32609375 C44.4334104,3.24796875 42.229197,0.07609375 37.2009385,0.07609375 C32.3185228,0.07609375 29.4911633,3.27609375 29.4911633,7.51046875 C29.4911633,11.7448437 32.3317812,14.9448437 37.2009385,14.9448437 C41.3077363,14.9448437 43.4788037,13.0917187 44.6123992,11.4635937 L41.546388,9.77921875 C41.2016722,10.2604687 40.0680734,11.8042187 37.2009385,11.8042187 Z M37.2009385,2.87921875 C39.6404891,2.87921875 40.6216127,4.92921875 40.6216127,5.69171875 L33.3129048,5.69171875 C33.7356918,4.00246535 35.3608225,2.82688907 37.2009385,2.87921875 L37.2009385,2.87921875 Z" id="Shape"></path>
                <path d="M53.6413913,0.072965625 C52.0644587,0.0413211813 50.5561846,0.680588025 49.5345935,1.81359063 L49.4649868,1.81359063 L49.4649868,0.410465625 L45.8189194,0.410465625 L45.8189194,14.6073406 L49.4649868,14.6073406 L49.4649868,7.10734062 C49.4649868,4.49796562 50.9234138,3.37609062 52.6801553,3.37609062 C54.5562228,3.37609062 55.1793688,4.62609062 55.1793688,5.92921562 L55.1793688,14.6010906 L58.8254362,14.6010906 L58.8254362,4.90109062 C58.8188037,1.78546875 57.2112194,0.072965625 53.6413913,0.072965625 Z" id="Shape"></path>
            </g>
        </g>
    </g>
</svg>