<?xml version="1.0" encoding="UTF-8"?>
<svg width="178px" height="92px" viewBox="0 0 178 92" version="1.1" xmlns="http://www.w3.org/2000/svg" xmlns:xlink="http://www.w3.org/1999/xlink">
    <!-- Generator: Sketch 46.2 (44496) - http://www.bohemiancoding.com/sketch -->
    <title>Group 3</title>
    <desc>Created with Sketch.</desc>
    <defs></defs>
    <g id="Page-1" stroke="none" stroke-width="1" fill="none" fill-rule="evenodd">
        <g id="Artboard-Copy-7" transform="translate(-64.000000, -92.000000)" fill-rule="nonzero" fill="#000000">
            <g id="Group-3" transform="translate(64.000000, 92.000000)">
                <g id="d">
                    <path d="M25.5289883,17.5943142 C22.8094915,15.0375219 19.2002461,13.6418354 15.4680871,13.7037878 C6.37981744,13.7037878 0.0927268057,22.0295143 0.0927268057,32.2304744 C0.0927268057,42.4314346 6.37981744,50.741599 15.4680871,50.741599 C20.5646766,50.741599 23.2958261,48.9908621 25.3889293,46.477582 L25.5289883,46.477582 L25.5289883,49.9012453 L34.0881463,49.9012453 L34.0881463,0.164756011 L25.5289883,0.164756011 L25.5289883,17.5943142 Z M17.4211313,42.9216409 C10.9939817,42.9216409 9.1031859,37.327064 9.03315643,32.2304744 C9.1031859,27.1261038 10.9862007,21.5393079 17.4211313,21.5393079 C23.8560619,21.5393079 25.7312957,27.1261038 25.8013251,32.2304744 C25.7312957,37.327064 23.8482809,42.9216331 17.4211313,42.9216331 L17.4211313,42.9216409 Z" id="Shape"></path>
                    <path d="M64.8706369,38.1816316 C64.0302832,39.3721327 61.3769442,43.2159727 54.6696767,43.2159727 C49.7619803,43.3125308 45.6846741,39.4534661 45.5113776,34.5478799 L71.6401528,34.5478799 C71.6401528,21.9036692 66.4735337,14.0059007 54.6618956,14.0059007 C43.208186,13.9981196 36.570948,21.9736987 36.570948,32.5248062 C36.570948,43.0759138 43.208186,51.0359307 54.6696767,51.0359307 C64.3104011,51.0359307 69.4069906,46.4217665 72.0681107,42.367838 L64.8706369,38.1816316 Z M54.6696767,21.0010671 C60.3965315,21.0010671 62.7075042,26.0976566 62.7075042,28.0040146 L45.5113776,28.0040146 C46.5061573,23.7860958 50.338477,20.85569 54.6696767,21.0010671 L54.6696767,21.0010671 Z" id="Shape"></path>
                </g>
                <g id="d" transform="translate(39.488843, 53.883790)">
                    <polygon id="Shape" points="2.13434277 8.42999256 18.9025115 8.42999256 0.181298529 29.8115474 0.181298529 36.378756 30.1539138 36.378756 30.1539138 28.9711937 11.6350082 28.9711937 30.1539138 7.58886076 30.1539138 1.02165223 2.13434277 1.02165223"></polygon>
                    <path d="M49.2955759,29.3917596 C44.3921752,29.4883194 40.3183519,25.6327366 40.1450578,20.7314479 L66.273833,20.7314479 C66.273833,8.08723719 61.107214,0.189468635 49.2955759,0.189468635 C37.8340852,0.189468635 31.1968472,8.15726666 31.1968472,18.7005932 C31.1968472,29.2439196 37.8340852,37.2117177 49.2955759,37.2117177 C58.9363003,37.2117177 64.0328898,32.5975534 66.6940099,28.5436249 L59.4965361,24.3496375 C58.6561746,25.5479196 56.0028356,29.3917596 49.2955759,29.3917596 Z M49.2955759,7.16907296 C55.0224307,7.16907296 57.3334034,12.2734436 57.3334034,14.1720204 L40.1450578,14.1720204 C41.1392702,9.95705255 44.967255,7.02747239 49.2955759,7.16907296 Z" id="Shape"></path>
                    <path d="M87.329354,29.3917596 C82.4275829,29.4841095 78.3562439,25.630878 78.178836,20.7314479 L104.307611,20.7314479 C104.307611,8.08723719 99.133211,0.189468635 87.329354,0.189468635 C75.8678633,0.189468635 69.2306253,8.15726666 69.2306253,18.7005932 C69.2306253,29.2439196 75.8989875,37.2117177 87.329354,37.2117177 C96.9700784,37.2117177 102.066668,32.5975534 104.727788,28.5436249 L97.5303142,24.3496375 C96.7210925,25.5479196 94.0599646,29.3917596 87.329354,29.3917596 Z M87.329354,7.16907296 C93.0562088,7.16907296 95.3594004,12.2734436 95.3594004,14.1720204 L78.2021791,14.1720204 C79.1946732,9.9658861 83.0096742,7.03877537 87.329354,7.16907296 L87.329354,7.16907296 Z" id="Shape"></path>
                    <path d="M125.923383,0.181679801 C122.221528,0.102887133 118.680848,1.69462122 116.282659,4.51572619 L116.119257,4.51572619 L116.119257,1.0220335 L107.560099,1.0220335 L107.560099,36.3713562 L116.119257,36.3713562 L116.119257,17.6968296 C116.119257,11.1996505 119.54292,8.40625257 123.666878,8.40625257 C128.070954,8.40625257 129.533792,11.5186737 129.533792,14.7633727 L129.533792,36.3557941 L138.09295,36.3557941 L138.09295,12.2034063 C138.07738,4.44570449 134.30357,0.181679801 125.923383,0.181679801 Z" id="Shape"></path>
                </g>
            </g>
        </g>
    </g>
</svg>